<?xml version="1.0" standalone="no"?>
<!DOCTYPE svg PUBLIC "-//W3C//DTD SVG 20010904//EN"
 "http://www.w3.org/TR/2001/REC-SVG-20010904/DTD/svg10.dtd">
<svg version="1.0" xmlns="http://www.w3.org/2000/svg"
 width="2000.000000pt" height="2000.000000pt" viewBox="0 0 2000.000000 2000.000000"
 preserveAspectRatio="xMidYMid meet">
<metadata>
Created by potrace 1.11, written by Peter Selinger 2001-2013
</metadata>
<g transform="translate(0.000000,2000.000000) scale(0.100000,-0.100000)"
fill="#000000" stroke="none">
<path d="M7674 18255 c-4 -10 60 -81 197 -219 112 -112 249 -250 304 -307 90
-94 127 -135 230 -250 65 -72 204 -248 272 -344 140 -197 259 -415 318 -585
41 -119 93 -350 110 -490 2 -19 6 -57 10 -85 3 -27 7 -66 10 -85 5 -39 14
-171 21 -300 5 -96 5 -699 0 -805 -2 -38 -7 -131 -11 -205 -4 -74 -8 -157 -10
-185 -1 -27 -6 -97 -10 -155 -5 -58 -9 -117 -9 -132 -1 -15 -4 -29 -7 -32 -3
-3 -77 -8 -165 -11 -87 -3 -199 -7 -249 -10 -49 -2 -189 -7 -310 -10 -229 -6
-401 -13 -470 -20 -141 -14 -275 -36 -405 -67 -47 -11 -93 -21 -103 -23 -9 -2
-21 -6 -25 -9 -5 -3 -19 -7 -33 -9 -124 -23 -743 -235 -786 -269 -7 -6 -13 -8
-13 -5 0 3 -73 -27 -162 -67 -440 -194 -842 -436 -1238 -745 -150 -117 -137
-106 -310 -257 -195 -170 -471 -451 -625 -638 -22 -26 -45 -53 -50 -59 -69
-78 -253 -339 -331 -470 -16 -27 -36 -61 -45 -75 -99 -163 -284 -515 -391
-747 -65 -140 -117 -255 -133 -290 -7 -16 -22 -50 -33 -75 -32 -73 -123 -291
-139 -335 -76 -208 -138 -390 -163 -480 -9 -32 -48 -177 -57 -210 -15 -59 -28
-133 -38 -210 -3 -27 -8 -61 -10 -75 -5 -36 -14 -107 -20 -165 -3 -27 -8 -61
-10 -75 -3 -14 -7 -51 -10 -83 -4 -32 -8 -68 -10 -79 -3 -12 -7 -46 -10 -77
-3 -31 -7 -69 -9 -86 -7 -53 -15 -128 -21 -190 -3 -33 -7 -73 -9 -90 -3 -16
-7 -64 -10 -105 -4 -41 -9 -95 -11 -120 -3 -25 -7 -81 -10 -125 -3 -44 -7
-111 -10 -150 -22 -319 -45 -831 -60 -1300 -8 -230 -19 -500 -30 -690 -8 -139
-15 -267 -20 -345 -2 -41 -7 -122 -10 -180 -3 -58 -8 -139 -10 -180 -3 -41 -7
-122 -10 -180 -3 -58 -7 -123 -10 -145 -2 -22 -6 -78 -10 -125 -10 -121 -11
-138 -19 -200 -9 -68 -14 -109 -22 -185 -3 -33 -8 -67 -9 -75 -2 -9 -6 -43
-10 -75 -3 -33 -8 -73 -10 -90 -2 -16 -9 -70 -15 -120 -6 -49 -13 -101 -15
-115 -2 -14 -7 -52 -10 -85 -4 -33 -8 -71 -10 -85 -2 -14 -16 -123 -30 -242
-27 -212 -27 -217 -9 -242 39 -53 51 -37 142 189 46 116 88 219 93 230 32 74
193 526 204 575 2 8 13 42 25 75 12 33 23 67 25 75 2 8 31 101 65 205 34 105
69 213 77 240 8 28 23 75 33 105 9 30 25 84 35 120 9 36 21 74 25 85 7 17 9
16 10 -10 1 -16 3 -39 5 -50 2 -11 7 -54 11 -95 3 -41 8 -88 10 -105 2 -16 6
-64 9 -105 3 -41 8 -86 10 -100 2 -14 6 -59 10 -100 3 -41 8 -93 10 -115 2
-22 7 -71 10 -110 3 -38 8 -83 10 -100 2 -16 7 -70 10 -120 4 -49 8 -101 10
-115 4 -23 9 -87 20 -215 4 -47 11 -157 20 -320 24 -418 24 -696 1 -900 -2
-16 -6 -57 -10 -90 -4 -33 -9 -67 -11 -75 -2 -8 -6 -37 -10 -65 -3 -27 -22
-140 -42 -249 -37 -209 -37 -226 6 -233 25 -4 57 25 106 98 16 24 53 76 81
114 110 152 294 423 294 434 0 5 6 14 14 20 17 14 118 176 191 306 15 28 41
73 57 100 15 28 53 101 84 162 51 105 75 144 55 90 -5 -13 -12 -41 -15 -61 -4
-21 -8 -41 -11 -45 -2 -4 -6 -18 -8 -32 -3 -13 -17 -67 -32 -119 -15 -52 -28
-99 -30 -105 -1 -5 -5 -17 -8 -25 -3 -8 -26 -73 -50 -145 -41 -120 -66 -189
-87 -240 -4 -11 -18 -49 -31 -85 -12 -36 -26 -69 -31 -75 -4 -5 -8 -16 -8 -25
0 -8 -11 -36 -24 -63 -18 -37 -21 -50 -11 -63 30 -42 58 -1 263 386 25 47 51
92 58 101 8 8 14 21 14 27 0 6 14 35 31 64 58 98 264 522 303 623 21 55 44
114 51 130 7 17 23 63 36 104 l22 75 49 -135 c117 -318 246 -697 299 -876 27
-95 105 -406 116 -463 2 -14 13 -68 25 -120 11 -52 22 -105 24 -116 10 -56 45
-218 47 -220 3 -3 31 -6 48 -5 17 1 25 20 105 233 40 106 85 295 98 407 3 24
7 46 10 48 2 3 24 -28 47 -69 24 -40 46 -75 49 -78 7 -5 123 -243 152 -310 15
-35 43 -105 92 -232 31 -80 86 -251 129 -399 34 -118 59 -159 97 -159 24 0 28
16 35 130 3 47 7 94 9 105 2 11 7 43 10 70 4 28 9 57 11 65 2 8 6 32 9 53 20
130 56 261 101 363 13 30 25 56 25 59 1 6 111 219 115 223 2 2 80 -72 173
-165 166 -166 213 -210 387 -368 48 -44 100 -91 115 -105 70 -64 186 -167 207
-183 18 -14 27 -16 43 -7 11 6 20 14 20 19 0 4 -18 42 -40 84 -40 75 -40 76
-19 87 20 11 21 31 5 115 -2 11 -7 49 -11 85 -3 36 -8 72 -10 80 -7 26 -18
182 -18 250 0 75 12 282 17 287 5 6 94 -133 129 -203 19 -38 65 -145 102 -239
63 -159 93 -231 101 -246 2 -4 -26 -40 -62 -80 -116 -130 -200 -269 -286 -479
-31 -75 -70 -176 -74 -190 -1 -6 -13 -36 -39 -95 -20 -46 -113 -328 -119 -359
-2 -12 -11 -41 -20 -66 -9 -25 -16 -53 -16 -62 0 -17 77 -18 1394 -18 1110 0
1395 2 1399 12 4 10 6 10 6 1 1 -17 68 -17 74 0 4 9 6 9 6 0 1 -10 307 -13
1497 -13 l1495 0 -7 23 c-4 12 -32 51 -63 87 -237 271 -592 721 -739 938 -61
88 -162 278 -246 460 l-39 83 22 57 c22 56 76 210 80 224 2 10 6 24 20 67 6
19 11 44 11 57 0 13 6 26 13 30 6 4 9 4 5 -1 -4 -4 -1 -20 8 -36 18 -35 95
-269 119 -362 10 -37 21 -68 24 -68 37 -7 61 -6 69 4 7 9 40 148 77 327 22
106 198 665 215 683 6 7 46 -129 66 -223 3 -14 11 -50 19 -80 8 -30 17 -71 20
-90 3 -19 10 -53 15 -75 5 -22 11 -53 14 -70 2 -16 8 -50 12 -75 4 -25 8 -56
9 -70 7 -63 16 -126 20 -140 2 -8 7 -42 10 -75 19 -191 24 -207 76 -235 23
-13 43 13 59 75 7 28 16 64 21 80 6 17 79 275 165 575 85 300 160 561 166 580
l11 35 13 -55 c8 -30 15 -64 18 -75 2 -11 9 -38 14 -60 6 -22 13 -52 16 -68 3
-15 7 -35 10 -45 2 -9 7 -39 11 -67 3 -27 8 -57 10 -65 4 -16 13 -108 20 -205
2 -33 7 -93 10 -132 7 -84 22 -50 -207 -451 -77 -134 -138 -251 -136 -260 2
-12 15 -18 44 -20 44 -3 32 -13 184 157 36 40 79 88 95 105 17 18 53 59 80 91
28 33 59 69 70 80 80 84 359 431 437 545 l18 25 -10 -28 c-5 -15 -21 -51 -34
-80 -48 -107 -70 -154 -108 -242 -22 -49 -51 -115 -65 -145 -14 -30 -45 -100
-70 -155 -25 -55 -56 -124 -69 -152 -63 -138 -73 -160 -86 -193 -30 -73 -15
-138 25 -107 15 12 442 544 572 712 38 50 72 92 75 95 3 3 48 61 100 130 51
69 96 127 100 130 3 3 25 32 50 65 25 33 48 62 51 65 3 3 49 62 102 132 105
139 246 349 297 443 18 33 37 65 42 72 5 6 60 114 123 240 98 194 115 223 116
193 3 -92 19 -334 24 -360 1 -8 6 -42 9 -75 4 -33 9 -71 11 -85 2 -14 6 -47
10 -75 3 -27 8 -61 10 -75 2 -14 11 -70 20 -125 8 -55 17 -109 19 -120 2 -11
11 -60 21 -110 14 -76 26 -130 60 -275 23 -96 182 -549 215 -610 12 -21 57
-15 64 9 5 15 9 49 22 211 3 41 7 93 9 115 10 106 17 183 20 215 11 108 18
178 20 200 5 54 19 165 30 240 12 80 14 92 55 295 43 214 59 304 66 375 2 25
23 110 45 190 23 79 43 151 45 160 2 8 15 58 28 110 14 52 28 111 31 130 3 19
8 42 10 50 2 8 6 33 10 55 3 22 10 65 15 95 11 66 17 108 25 175 3 28 8 61 10
75 3 14 7 45 10 70 3 25 14 99 25 165 10 66 21 145 25 175 11 88 15 123 20
150 3 14 7 56 11 95 3 38 8 78 10 89 2 11 7 48 10 81 3 33 7 69 9 80 1 11 3
29 4 40 l2 20 9 -20 c6 -11 48 -117 94 -235 159 -405 218 -540 370 -850 251
-511 422 -791 808 -1320 58 -80 123 -174 144 -210 27 -45 46 -65 59 -65 35 0
27 38 -26 125 -68 113 -205 395 -267 550 -81 203 -124 347 -192 640 -12 52
-37 159 -55 237 -19 78 -36 152 -39 165 -2 12 -10 46 -16 73 -6 28 -13 59 -16
70 -2 11 -15 74 -28 140 -14 66 -30 147 -36 180 -6 33 -13 69 -15 80 -2 11 -9
47 -14 80 -6 33 -13 69 -15 80 -5 25 -18 104 -22 130 -2 11 -6 34 -9 50 -7 36
-43 238 -49 280 -7 41 -17 139 -21 200 -9 132 -18 310 -20 405 -2 99 -12 226
-20 260 -6 24 -18 152 -18 185 0 17 -3 53 -8 80 -5 28 -15 102 -23 165 -9 63
-18 131 -21 150 -4 30 -10 71 -29 215 -3 17 -7 46 -10 65 -3 19 -8 51 -10 70
-3 19 -9 64 -15 100 -5 36 -13 85 -16 110 -3 25 -13 86 -20 135 -8 50 -17 108
-20 130 -3 22 -8 49 -10 61 -2 11 -7 45 -11 75 -3 30 -8 57 -10 60 -1 3 -10
48 -18 100 -9 52 -18 105 -21 119 -8 42 -24 133 -31 175 -23 162 -211 781
-329 1085 -8 19 -37 100 -66 180 -28 80 -63 174 -76 210 -14 36 -28 76 -33 90
-29 92 -266 661 -362 870 -17 36 -38 86 -48 111 -23 57 -164 342 -209 424
-220 392 -606 868 -1001 1235 -62 58 -118 110 -124 116 -75 72 -495 404 -716
565 -101 75 -300 209 -307 209 -4 0 -16 8 -27 18 -39 34 -230 141 -336 187
-58 25 -114 50 -125 55 -198 90 -519 216 -733 286 -180 60 -461 129 -602 148
-19 2 -66 9 -105 15 -69 10 -173 20 -270 26 -225 14 -293 15 -315 7 -23 -9
-33 -3 -102 62 -101 94 -122 110 -193 145 -84 42 -132 52 -238 50 -178 -4
-363 -72 -520 -192 -38 -29 -42 -21 -11 28 48 75 266 506 369 731 191 414 377
922 430 1174 1 8 8 33 13 55 6 22 13 58 16 80 4 22 10 63 16 90 41 216 34 455
-16 599 -108 311 -461 593 -1130 902 -161 74 -569 229 -809 307 -325 105 -446
139 -461 126 -13 -10 -44 -2 -44 12 0 15 -30 10 -36 -6z m-6 -16597 c10 -32
16 -58 13 -58 -3 0 -32 -24 -64 -54 -31 -30 -57 -53 -57 -52 0 16 81 228 85
224 2 -2 12 -29 23 -60z m-268 -412 c0 -2 -8 -10 -17 -17 -16 -13 -17 -12 -4
4 13 16 21 21 21 13z m2157 -68 c-3 -8 -6 -5 -6 6 -1 11 2 17 5 13 3 -3 4 -12
1 -19z m0 -60 c-3 -8 -6 -5 -6 6 -1 11 2 17 5 13 3 -3 4 -12 1 -19z m0 -40
c-3 -8 -6 -5 -6 6 -1 11 2 17 5 13 3 -3 4 -12 1 -19z"/>
</g>
</svg>
